<mxfile host="app.diagrams.net" agent="Mozilla/5.0 (Windows NT 10.0; Win64; x64) AppleWebKit/537.36 (KHTML, like Gecko) Chrome/133.0.0.0 Safari/537.36" version="26.0.14">
  <diagram name="Page-1" id="fiG8a0XpyJDfg7DjXdXR">
    <mxGraphModel dx="1120" dy="468" grid="1" gridSize="10" guides="1" tooltips="1" connect="1" arrows="1" fold="1" page="1" pageScale="1" pageWidth="850" pageHeight="1100" math="0" shadow="0">
      <root>
        <mxCell id="0" />
        <mxCell id="1" parent="0" />
        <mxCell id="Db2FOKIpcLL5uDQEh1vW-15" value="Sybase DB" style="shape=cylinder3;whiteSpace=wrap;html=1;boundedLbl=1;backgroundOutline=1;size=15;" vertex="1" parent="1">
          <mxGeometry x="600" y="80" width="60" height="80" as="geometry" />
        </mxCell>
        <mxCell id="Db2FOKIpcLL5uDQEh1vW-16" value="Authentication/Authorization" style="rounded=1;whiteSpace=wrap;html=1;" vertex="1" parent="1">
          <mxGeometry x="170" y="310" width="250" height="40" as="geometry" />
        </mxCell>
        <mxCell id="Db2FOKIpcLL5uDQEh1vW-17" value="Observability and Monitoring" style="rounded=1;whiteSpace=wrap;html=1;" vertex="1" parent="1">
          <mxGeometry x="690" y="50" width="90" height="350" as="geometry" />
        </mxCell>
        <mxCell id="Db2FOKIpcLL5uDQEh1vW-18" value="UAD&lt;br&gt;MicroServices" style="rounded=1;whiteSpace=wrap;html=1;" vertex="1" parent="1">
          <mxGeometry x="425" y="80" width="120" height="60" as="geometry" />
        </mxCell>
        <mxCell id="Db2FOKIpcLL5uDQEh1vW-19" value="AI Services" style="rounded=1;whiteSpace=wrap;html=1;" vertex="1" parent="1">
          <mxGeometry x="90" y="60" width="120" height="60" as="geometry" />
        </mxCell>
        <mxCell id="Db2FOKIpcLL5uDQEh1vW-21" value="" style="endArrow=classic;startArrow=classic;html=1;rounded=0;exitX=1;exitY=0.5;exitDx=0;exitDy=0;entryX=0;entryY=0.25;entryDx=0;entryDy=0;" edge="1" parent="1" source="Db2FOKIpcLL5uDQEh1vW-19" target="Db2FOKIpcLL5uDQEh1vW-25">
          <mxGeometry width="50" height="50" relative="1" as="geometry">
            <mxPoint x="430" y="270" as="sourcePoint" />
            <mxPoint x="270" y="100" as="targetPoint" />
          </mxGeometry>
        </mxCell>
        <mxCell id="Db2FOKIpcLL5uDQEh1vW-22" value="Batch Jobs" style="rounded=1;whiteSpace=wrap;html=1;" vertex="1" parent="1">
          <mxGeometry x="560" y="210" width="120" height="30" as="geometry" />
        </mxCell>
        <mxCell id="Db2FOKIpcLL5uDQEh1vW-23" value="Genesys Services" style="rounded=1;whiteSpace=wrap;html=1;" vertex="1" parent="1">
          <mxGeometry x="90" y="140" width="120" height="60" as="geometry" />
        </mxCell>
        <mxCell id="Db2FOKIpcLL5uDQEh1vW-24" value="" style="endArrow=classic;startArrow=classic;html=1;rounded=0;exitX=1;exitY=0.5;exitDx=0;exitDy=0;entryX=-0.017;entryY=0.65;entryDx=0;entryDy=0;entryPerimeter=0;" edge="1" parent="1" source="Db2FOKIpcLL5uDQEh1vW-23" target="Db2FOKIpcLL5uDQEh1vW-25">
          <mxGeometry width="50" height="50" relative="1" as="geometry">
            <mxPoint x="430" y="270" as="sourcePoint" />
            <mxPoint x="260" y="200" as="targetPoint" />
          </mxGeometry>
        </mxCell>
        <mxCell id="Db2FOKIpcLL5uDQEh1vW-25" value="API Gateway" style="rounded=1;whiteSpace=wrap;html=1;" vertex="1" parent="1">
          <mxGeometry x="310" y="40" width="50" height="200" as="geometry" />
        </mxCell>
        <mxCell id="Db2FOKIpcLL5uDQEh1vW-26" value="" style="endArrow=classic;startArrow=classic;html=1;rounded=0;exitX=1.038;exitY=0.395;exitDx=0;exitDy=0;exitPerimeter=0;entryX=0.017;entryY=0.65;entryDx=0;entryDy=0;entryPerimeter=0;" edge="1" parent="1" source="Db2FOKIpcLL5uDQEh1vW-25" target="Db2FOKIpcLL5uDQEh1vW-18">
          <mxGeometry width="50" height="50" relative="1" as="geometry">
            <mxPoint x="430" y="270" as="sourcePoint" />
            <mxPoint x="480" y="220" as="targetPoint" />
          </mxGeometry>
        </mxCell>
        <mxCell id="Db2FOKIpcLL5uDQEh1vW-27" value="" style="shape=flexArrow;endArrow=classic;startArrow=classic;html=1;rounded=0;entryX=0;entryY=0.5;entryDx=0;entryDy=0;entryPerimeter=0;exitX=1;exitY=0.633;exitDx=0;exitDy=0;exitPerimeter=0;width=4;endSize=5.16;endWidth=7;startWidth=7;startSize=5.16;" edge="1" parent="1" source="Db2FOKIpcLL5uDQEh1vW-18" target="Db2FOKIpcLL5uDQEh1vW-15">
          <mxGeometry width="100" height="100" relative="1" as="geometry">
            <mxPoint x="400" y="220" as="sourcePoint" />
            <mxPoint x="500" y="120" as="targetPoint" />
          </mxGeometry>
        </mxCell>
        <mxCell id="Db2FOKIpcLL5uDQEh1vW-29" value="" style="shape=flexArrow;endArrow=classic;startArrow=classic;html=1;rounded=0;exitX=0.567;exitY=0;exitDx=0;exitDy=0;entryX=0.5;entryY=1;entryDx=0;entryDy=0;entryPerimeter=0;exitPerimeter=0;endWidth=8;endSize=5.67;startWidth=8;startSize=5.67;" edge="1" parent="1" source="Db2FOKIpcLL5uDQEh1vW-22" target="Db2FOKIpcLL5uDQEh1vW-15">
          <mxGeometry width="100" height="100" relative="1" as="geometry">
            <mxPoint x="400" y="220" as="sourcePoint" />
            <mxPoint x="500" y="120" as="targetPoint" />
            <Array as="points" />
          </mxGeometry>
        </mxCell>
      </root>
    </mxGraphModel>
  </diagram>
</mxfile>
